<svg width="1946" height="1557" viewBox="0 0 1946 1557" fill="none" xmlns="http://www.w3.org/2000/svg">
<g filter="url(#filter0_f_285_562)">
<path d="M300 324C300 310.745 310.745 300 324 300H1622C1635.25 300 1646 310.745 1646 324V1233C1646 1246.25 1635.25 1257 1622 1257H324C310.745 1257 300 1246.25 300 1233V778.5V324Z" fill="#D3E4FF"/>
<path d="M300 324C300 310.745 310.745 300 324 300H1622C1635.25 300 1646 310.745 1646 324V1233C1646 1246.25 1635.25 1257 1622 1257H324C310.745 1257 300 1246.25 300 1233V778.5V324Z" fill="url(#paint0_linear_285_562)" fill-opacity="0.85"/>
<path d="M300 324C300 310.745 310.745 300 324 300H1622C1635.25 300 1646 310.745 1646 324V1233C1646 1246.25 1635.25 1257 1622 1257H324C310.745 1257 300 1246.25 300 1233V778.5V324Z" fill="url(#paint1_linear_285_562)" fill-opacity="0.91"/>
<path d="M300 324C300 310.745 310.745 300 324 300H1622C1635.25 300 1646 310.745 1646 324V1233C1646 1246.25 1635.25 1257 1622 1257H324C310.745 1257 300 1246.25 300 1233V778.5V324Z" fill="url(#paint2_linear_285_562)" fill-opacity="0.5" style="mix-blend-mode:darken"/>
<path d="M300 324C300 310.745 310.745 300 324 300H1622C1635.25 300 1646 310.745 1646 324V1233C1646 1246.25 1635.25 1257 1622 1257H324C310.745 1257 300 1246.25 300 1233V778.5V324Z" fill="url(#paint3_linear_285_562)" fill-opacity="0.2"/>
</g>
<defs>
<filter id="filter0_f_285_562" x="0" y="0" width="1946" height="1557" filterUnits="userSpaceOnUse" color-interpolation-filters="sRGB">
<feFlood flood-opacity="0" result="BackgroundImageFix"/>
<feBlend mode="normal" in="SourceGraphic" in2="BackgroundImageFix" result="shape"/>
<feGaussianBlur stdDeviation="150" result="effect1_foregroundBlur_285_562"/>
</filter>
<linearGradient id="paint0_linear_285_562" x1="776.065" y1="322.43" x2="1360.9" y2="1359.27" gradientUnits="userSpaceOnUse">
<stop stop-color="#5DFFD8"/>
<stop offset="1" stop-color="#4EADEB" stop-opacity="0"/>
</linearGradient>
<linearGradient id="paint1_linear_285_562" x1="1370.95" y1="985.352" x2="869.327" y2="560.149" gradientUnits="userSpaceOnUse">
<stop stop-color="#FCB25B"/>
<stop offset="1" stop-color="#FCB25B" stop-opacity="0"/>
</linearGradient>
<linearGradient id="paint2_linear_285_562" x1="361.449" y1="576.633" x2="830.004" y2="145.223" gradientUnits="userSpaceOnUse">
<stop stop-color="#B95BE6"/>
<stop offset="1" stop-color="#B95BE6" stop-opacity="0"/>
</linearGradient>
<linearGradient id="paint3_linear_285_562" x1="661.896" y1="1112.45" x2="794.439" y2="740.486" gradientUnits="userSpaceOnUse">
<stop stop-color="#F97C59"/>
<stop offset="1" stop-color="#F97C59" stop-opacity="0"/>
</linearGradient>
</defs>
</svg>
